<svg width="47" height="47" viewBox="0 0 47 47" fill="none" xmlns="http://www.w3.org/2000/svg">
<path d="M37.7467 22.896L24.076 36.5667L34.4885 46.979L45.4233 36.0442C46.9343 34.5332 46.9343 32.0835 45.4233 30.5725L37.7467 22.896Z" fill="#8AB9FF"/>
<path d="M16.4065 1.54854C14.8957 0.0375316 12.4458 0.0375316 10.9348 1.54854L0 12.4834L10.4124 22.8957L24.0831 9.22499L16.4065 1.54854Z" fill="#8AB9FF"/>
<path d="M10.4084 22.8965L6.19275 27.1121L19.8634 40.7829L24.0791 36.5673L10.4084 22.8965Z" fill="#227AFF"/>
<path d="M45.8402 14.8032C47.3502 13.2932 47.3502 10.845 45.8402 9.33494L37.6377 1.13255C36.1278 -0.377516 33.6795 -0.377516 32.1694 1.13255L24.076 9.2259L37.7467 22.8967L45.8402 14.8032Z" fill="#227AFF"/>
<path d="M24.0774 9.22531L10.4067 22.896L24.0775 36.5667L37.7482 22.8961L24.0774 9.22531Z" fill="#0060F0"/>
<path d="M32.1725 1.13252C33.6825 -0.377507 36.1308 -0.377507 37.6408 1.13252L45.8432 9.33496C47.3533 10.845 47.3533 13.2932 45.8432 14.8033L40.375 20.2715L26.7042 6.60081L32.1725 1.13252Z" fill="#00E989"/>
<path d="M2.42639 45.7543C1.69737 45.9624 1.02346 45.2885 1.23154 44.5594L6.20971 27.1177L19.8681 40.7761L2.42639 45.7543Z" fill="#8AB9FF"/>
<path d="M2.4264 45.7544C1.69737 45.9625 1.02347 45.2886 1.23154 44.5596L1.96508 41.9895L4.99645 45.0209L2.4264 45.7544Z" fill="black"/>
<path d="M14.7114 6.61377L17.4456 3.87962" stroke="black" stroke-width="1.93333" stroke-linecap="round"/>
<path d="M19.0011 10.135L21.7352 7.40086" stroke="black" stroke-width="1.93333" stroke-linecap="round"/>
<path d="M36.8391 28.4846L39.5733 25.7505" stroke="black" stroke-width="1.93333" stroke-linecap="round"/>
<path d="M41.0531 32.5911L43.7872 29.8569" stroke="black" stroke-width="1.93333" stroke-linecap="round"/>
</svg>
