<svg width="67" height="60" viewBox="0 0 67 60" fill="none" xmlns="http://www.w3.org/2000/svg">
<rect width="67" height="60" fill="white"/>
<circle cx="28.7316" cy="35.2687" r="23.7316" fill="#8AB9FF"/>
<circle cx="28.7356" cy="35.2681" r="15.8211" fill="#227AFF"/>
<circle cx="28.7246" cy="35.2692" r="7.91053" fill="#0045AD"/>
<path d="M44.7229 16.3628L46.4297 18.0696L30.5217 33.9776C30.0504 34.4489 29.2862 34.4489 28.8149 33.9776C28.3436 33.5062 28.3436 32.7421 28.8149 32.2708L44.7229 16.3628Z" fill="black"/>
<path d="M60.5086 8.93528L55.6303 8.00479C55.2049 7.92367 54.8615 7.58021 54.7804 7.15487L53.8499 2.27657C53.6972 1.47594 52.7102 1.12369 52.1603 1.67358L43.3002 10.5336C43.0874 10.7464 42.9953 11.0547 43.0517 11.3648L44.0773 17.0014L48.4123 12.6664C48.8515 12.2272 49.5896 12.2531 50.0608 12.7243C50.5321 13.1956 50.558 13.9336 50.1187 14.3729L45.7838 18.7078L51.4204 19.7335C51.7305 19.7899 52.0387 19.6977 52.2515 19.4849L61.1116 10.6249C61.6615 10.075 61.3093 9.08801 60.5086 8.93528Z" fill="#00E989"/>
<path d="M50.0621 12.7241C49.5909 12.2529 48.8528 12.2269 48.4135 12.6662L44.0786 17.0011L44.2089 17.7172C44.2875 18.1493 44.6369 18.4986 45.0689 18.5772L45.7851 18.7076L50.12 14.3726C50.5592 13.9334 50.5333 13.1953 50.0621 12.7241Z" fill="#00854E"/>
</svg>
