<svg width="22" height="25" viewBox="0 0 22 25" fill="none" xmlns="http://www.w3.org/2000/svg">
<path d="M10.1252 2C6.1289 2 3.37523 4.75401 3.37523 8.75002C3.37523 9.29565 3.37523 10.9663 3.37523 11C3.37523 11.3623 3.1923 11.6087 2.56658 12.125C2.49559 12.1835 2.19803 12.4389 2.10961 12.512C0.686031 13.6888 -0.0146189 14.7913 0.000231147 16.625C0.0151937 18.479 1.52652 19.9787 3.37523 20.0001H6.94824C6.94824 20.0001 6.75023 20.6874 6.75023 21.1251C6.75023 22.9892 8.26111 24.5001 10.1252 24.5001C11.9894 24.5001 13.5002 22.9892 13.5002 21.1251C13.5002 20.6874 13.3112 20.0001 13.3112 20.0001H16.8752C18.7202 20.0068 20.2525 18.4869 20.2502 16.625C20.248 14.8048 19.546 13.6832 18.1409 12.512C18.0486 12.4344 17.7224 12.1858 17.6481 12.125C17.0361 11.6143 16.8752 11.3578 16.8752 11C16.8752 9.59377 16.8752 8.75002 16.8752 8.75002C16.8752 4.75401 14.1212 2 10.1252 2ZM10.1252 4.25001C12.8792 4.25001 14.6252 5.99601 14.6252 8.75002C14.6252 8.75002 14.6252 9.59377 14.6252 11C14.6252 12.1948 15.1292 12.9485 16.207 13.8474C16.2925 13.9183 16.6536 14.2018 16.7346 14.2693C17.6774 15.0557 17.9991 15.5878 18.0002 16.625C18.0014 17.237 17.4771 17.7523 16.8752 17.75C16.6626 17.7489 13.3877 17.7489 10.1252 17.75C6.86307 17.7512 3.6143 17.7523 3.37523 17.75C2.74726 17.7422 2.2553 17.2494 2.25023 16.625C2.24191 15.59 2.56354 15.0568 3.51586 14.2693C3.5936 14.2052 3.92626 13.9149 4.00805 13.8474C5.1029 12.9429 5.62523 12.206 5.62523 11C5.62523 10.9663 5.62523 9.29565 5.62523 8.75002C5.62523 5.99601 7.37157 4.25001 10.1252 4.25001ZM10.1252 20.0001C10.7462 20.0001 11.2502 20.5041 11.2502 21.1251C11.2502 21.7461 10.7462 22.2501 10.1252 22.2501C9.50424 22.2501 9.00024 21.7461 9.00024 21.1251C9.00024 20.5041 9.50424 20.0001 10.1252 20.0001Z" fill="#989EA4"/>
</svg>
