<svg width="41" height="55" viewBox="0 0 41 55" fill="none" xmlns="http://www.w3.org/2000/svg">
<rect x="4.13855" y="8.68359" width="36.3587" height="45.4484" rx="3.86667" fill="#8AB9FF"/>
<rect y="5.45264" width="36.3587" height="45.4484" rx="3.86667" fill="#227AFF"/>
<path d="M6.08545 18.371L8.81049 20.9431C9.11923 21.2345 9.61154 21.1979 9.87384 20.8641L13.4115 16.3616" stroke="black" stroke-width="1.93333" stroke-linecap="round" stroke-linejoin="round"/>
<path d="M19.6792 18.9231L30.2708 18.9231" stroke="black" stroke-width="1.93333" stroke-linecap="round"/>
<path d="M6.08545 28.9486L8.81049 31.5207C9.11923 31.8121 9.61154 31.7755 9.87384 31.4417L13.4115 26.9392" stroke="black" stroke-width="1.93333" stroke-linecap="round" stroke-linejoin="round"/>
<path d="M19.6792 29.5007L30.2708 29.5007" stroke="black" stroke-width="1.93333" stroke-linecap="round"/>
<path d="M6.08545 39.5248L8.81049 42.0969C9.11923 42.3883 9.61154 42.3517 9.87384 42.0179L13.4115 37.5154" stroke="black" stroke-width="1.93333" stroke-linecap="round" stroke-linejoin="round"/>
<path d="M19.6792 40.0769L30.2708 40.0769" stroke="black" stroke-width="1.93333" stroke-linecap="round"/>
<path d="M5.42297 2.72691C5.42297 1.22088 6.64385 0 8.14988 0C9.65591 0 10.8768 1.22088 10.8768 2.72691V5.45381H5.42297V2.72691Z" fill="#00E989"/>
<path d="M10.8756 8.18057C10.8756 9.68659 9.65473 10.9075 8.14871 10.9075C6.64268 10.9075 5.4218 9.68659 5.4218 8.18056L5.4218 5.45366L10.8756 5.45366L10.8756 8.18057Z" fill="#005230"/>
<path d="M14.5225 2.72691C14.5225 1.22088 15.7433 0 17.2494 0C18.7554 0 19.9763 1.22088 19.9763 2.72691V5.45381H14.5225V2.72691Z" fill="#00E989"/>
<path d="M19.9751 8.18057C19.9751 9.68659 18.7542 10.9075 17.2482 10.9075C15.7422 10.9075 14.5213 9.68659 14.5213 8.18056L14.5213 5.45366L19.9751 5.45366L19.9751 8.18057Z" fill="#005230"/>
<path d="M23.5995 2.72691C23.5995 1.22088 24.8204 0 26.3264 0C27.8324 0 29.0533 1.22088 29.0533 2.72691V5.45381H23.5995V2.72691Z" fill="#00E989"/>
<path d="M29.0521 8.18057C29.0521 9.68659 27.8312 10.9075 26.3252 10.9075C24.8192 10.9075 23.5983 9.68659 23.5983 8.18056L23.5983 5.45366L29.0521 5.45366L29.0521 8.18057Z" fill="#005230"/>
</svg>
