<svg width="12" height="12" viewBox="0 0 12 12" fill="none" xmlns="http://www.w3.org/2000/svg">
<path d="M5.27552 1.07888C5.62128 0.563983 6.37872 0.563983 6.72448 1.07888C6.96777 1.44118 7.44129 1.56806 7.83314 1.37594C8.39003 1.10291 9.04599 1.48163 9.08798 2.10043C9.11753 2.53583 9.46417 2.88247 9.89957 2.91202C10.5184 2.95401 10.8971 3.60997 10.6241 4.16686C10.4319 4.55871 10.5588 5.03223 10.9211 5.27552C11.436 5.62128 11.436 6.37872 10.9211 6.72448C10.5588 6.96777 10.4319 7.44129 10.6241 7.83314C10.8971 8.39003 10.5184 9.04599 9.89957 9.08798C9.46417 9.11753 9.11753 9.46417 9.08798 9.89957C9.04599 10.5184 8.39003 10.8971 7.83314 10.6241C7.44129 10.4319 6.96777 10.5588 6.72448 10.9211C6.37872 11.436 5.62128 11.436 5.27552 10.9211C5.03223 10.5588 4.55871 10.4319 4.16686 10.6241C3.60997 10.8971 2.95401 10.5184 2.91202 9.89957C2.88247 9.46417 2.53583 9.11753 2.10043 9.08798C1.48163 9.04599 1.10291 8.39003 1.37594 7.83314C1.56806 7.44129 1.44118 6.96777 1.07888 6.72448C0.563983 6.37872 0.563983 5.62128 1.07888 5.27552C1.44118 5.03223 1.56806 4.55871 1.37594 4.16686C1.10291 3.60997 1.48163 2.95401 2.10043 2.91202C2.53583 2.88247 2.88247 2.53583 2.91202 2.10043C2.95401 1.48163 3.60997 1.10291 4.16686 1.37594C4.55871 1.56806 5.03223 1.44118 5.27552 1.07888Z" fill="#227AFF"/>
<g clip-path="url(#clip0_238_5648)">
<path d="M8.82341 4.23523L5.294 7.76464L3.5293 5.99994" stroke="white" stroke-width="0.705882" stroke-linecap="round" stroke-linejoin="round"/>
</g>
<defs>
<clipPath id="clip0_238_5648">
<rect width="8.47059" height="8.47059" fill="white" transform="translate(2 2)"/>
</clipPath>
</defs>
</svg>
